<svg width="118" height="40" viewBox="0 0 118 40" fill="none" xmlns="http://www.w3.org/2000/svg">
<g clip-path="url(#clip0)">
<path d="M14.4345 12.6779C17.2833 11.8036 18.0404 9.17547 18.0404 7.23089C18.0377 3.2682 15.0364 6.36365e-06 10.3684 6.36365e-06H0.588275C0.511379 -0.000352124 0.435166 0.0144389 0.363986 0.0435349C0.292806 0.0726309 0.228055 0.115462 0.173428 0.169583C0.118802 0.223704 0.0753699 0.288054 0.045613 0.35896C0.0158562 0.429866 0.000356824 0.505939 0 0.582835L0 26.5677C0.000356824 26.6446 0.0158562 26.7207 0.045613 26.7916C0.0753699 26.8625 0.118802 26.9269 0.173428 26.981C0.228055 27.0351 0.292806 27.0779 0.363986 27.107C0.435166 27.1361 0.511379 27.1509 0.588275 27.1506H11.1663C16.9401 27.1506 19.4076 23.2641 19.4076 19.6446C19.4076 16.676 17.7735 13.2525 14.4345 12.6779ZM5.28086 4.68442H10.0769C11.9344 4.68442 12.7732 6.16873 12.7732 7.77014C12.7623 9.55948 11.7355 10.894 10.0769 10.894H5.28086V4.68442ZM10.4038 22.4634H5.28086V15.3061H10.4827C12.9911 15.3061 14.0914 17.2506 14.0914 18.8875C14.0914 20.6359 12.874 22.4634 10.4038 22.4634Z" fill="#231815"/>
<path d="M47.0812 36.3016C47.0928 36.5573 47.0518 36.8127 46.9608 37.0519C46.8697 37.2912 46.7305 37.5092 46.5518 37.6925C46.3731 37.8758 46.1587 38.0205 45.9218 38.1176C45.685 38.2147 45.4307 38.2621 45.1747 38.257C44.9095 38.2729 44.6446 38.2197 44.406 38.1028C44.1673 37.9859 43.963 37.8091 43.813 37.5898V40.0001H43.0858V34.4223H43.7994V35.0161C43.9512 34.7982 44.1557 34.6222 44.3938 34.5046C44.6318 34.387 44.8958 34.3315 45.1611 34.3434C45.4178 34.3387 45.6727 34.3865 45.9103 34.4838C46.1478 34.581 46.3631 34.7257 46.5428 34.909C46.7225 35.0923 46.863 35.3104 46.9555 35.5498C47.0481 35.7892 47.0909 36.045 47.0812 36.3016ZM46.3595 36.3016C46.3595 35.9621 46.2246 35.6365 45.9846 35.3964C45.7445 35.1564 45.4189 35.0215 45.0794 35.0215C44.7399 35.0215 44.4143 35.1564 44.1743 35.3964C43.9342 35.6365 43.7994 35.9621 43.7994 36.3016C43.799 36.4714 43.8324 36.6396 43.8975 36.7965C43.9627 36.9533 44.0583 37.0956 44.1789 37.2152C44.2995 37.3348 44.4427 37.4293 44.6001 37.4931C44.7574 37.5569 44.9259 37.5888 45.0958 37.587C45.2635 37.59 45.43 37.559 45.5854 37.4959C45.7408 37.4328 45.8818 37.3388 45.9999 37.2197C46.118 37.1006 46.2108 36.9588 46.2726 36.8029C46.3343 36.647 46.3639 36.4801 46.3595 36.3124V36.3016Z" fill="#231815"/>
<path d="M47.8136 36.2878C47.8327 35.7686 48.0524 35.277 48.4265 34.9165C48.8006 34.5559 49.2999 34.3545 49.8195 34.3545C50.339 34.3545 50.8383 34.5559 51.2124 34.9165C51.5865 35.277 51.8062 35.7686 51.8253 36.2878C51.8062 36.807 51.5865 37.2985 51.2124 37.6591C50.8383 38.0196 50.339 38.2211 49.8195 38.2211C49.2999 38.2211 48.8006 38.0196 48.4265 37.6591C48.0524 37.2985 47.8327 36.807 47.8136 36.2878ZM51.1118 36.2878C51.1075 36.0343 51.0285 35.7878 50.8847 35.579C50.7409 35.3702 50.5388 35.2085 50.3035 35.1141C50.0682 35.0196 49.8103 34.9967 49.5621 35.0482C49.3139 35.0997 49.0864 35.2233 48.9081 35.4035C48.7298 35.5836 48.6086 35.8124 48.5597 36.0612C48.5108 36.3099 48.5364 36.5676 48.6333 36.8018C48.7301 37.0361 48.894 37.2366 49.1042 37.3781C49.3145 37.5197 49.5619 37.5961 49.8154 37.5978C49.9876 37.6008 50.1587 37.5689 50.3182 37.5039C50.4777 37.439 50.6225 37.3424 50.7436 37.2199C50.8648 37.0975 50.9599 36.9518 51.0232 36.7916C51.0864 36.6313 51.1166 36.46 51.1118 36.2878Z" fill="#231815"/>
<path d="M58.4681 34.4222L57.0383 38.1752H56.4418L55.3824 35.3864L54.3638 38.1752H53.7728L52.313 34.4222H53.0837L54.0615 37.0913L55.0365 34.4222H55.7337L56.7196 37.0913L57.6973 34.4222H58.4681Z" fill="#231815"/>
<path d="M62.7358 36.601H59.6174C59.7236 37.2683 60.2166 37.5978 60.873 37.5978C61.0931 37.6099 61.3124 37.5633 61.5086 37.4628C61.7048 37.3623 61.8708 37.2116 61.9896 37.0259L62.6133 37.2683C62.4395 37.5804 62.1825 37.838 61.8709 38.0126C61.5593 38.1872 61.2053 38.2717 60.8485 38.2569C60.5875 38.2656 60.3276 38.2207 60.0847 38.1248C59.8419 38.0289 59.6213 37.8842 59.4367 37.6996C59.2521 37.515 59.1073 37.2944 59.0115 37.0516C58.9156 36.8087 58.8706 36.5488 58.8794 36.2878C58.8708 36.0281 58.9161 35.7693 59.0124 35.5279C59.1086 35.2865 59.2538 35.0676 59.4387 34.885C59.6236 34.7024 59.8443 34.56 60.087 34.4667C60.3296 34.3735 60.5888 34.3315 60.8485 34.3432C61.105 34.3325 61.3609 34.3757 61.5996 34.4701C61.8384 34.5645 62.0546 34.708 62.2343 34.8914C62.4141 35.0747 62.5533 35.2937 62.643 35.5343C62.7326 35.7749 62.7708 36.0316 62.7549 36.2878C62.7522 36.3913 62.744 36.4948 62.7358 36.601ZM62.0386 35.9991C62.0096 35.7105 61.8689 35.4447 61.6465 35.2584C61.4241 35.0722 61.1377 34.9803 60.8485 35.0023C60.5546 34.9748 60.2617 35.0639 60.033 35.2504C59.8042 35.4369 59.6579 35.7058 59.6256 35.9991H62.0386Z" fill="#231815"/>
<path d="M66.181 34.4877L66.0666 35.1467C65.8922 35.0632 65.7017 35.0185 65.5083 35.016C64.7457 35.016 64.4407 35.814 64.4407 36.8026V38.1644H63.7299V34.4223H64.4516V35.2748C64.6504 34.6157 65.0181 34.3433 65.5274 34.3433C65.7535 34.3398 65.9774 34.3892 66.181 34.4877Z" fill="#231815"/>
<path d="M70.4949 36.601H67.3765C67.4828 37.2683 67.9757 37.5978 68.6321 37.5978C68.8518 37.61 69.0708 37.5634 69.2666 37.4629C69.4623 37.3624 69.6278 37.2115 69.746 37.0259L70.3697 37.2683C70.148 37.6444 69.8097 37.9379 69.406 38.1042C69.0023 38.2705 68.5554 38.3004 68.1332 38.1894C67.7109 38.0785 67.3365 37.8327 67.0667 37.4895C66.7969 37.1463 66.6465 36.7243 66.6385 36.2878C66.6299 36.0281 66.6752 35.7693 66.7715 35.5279C66.8677 35.2865 67.0129 35.0676 67.1978 34.885C67.3828 34.7024 67.6034 34.56 67.8461 34.4667C68.0887 34.3735 68.3479 34.3315 68.6076 34.3432C68.8641 34.3325 69.12 34.3757 69.3587 34.4701C69.5975 34.5645 69.8137 34.708 69.9934 34.8914C70.1732 35.0747 70.3124 35.2937 70.402 35.5343C70.4917 35.7749 70.5299 36.0316 70.514 36.2878C70.5113 36.3913 70.5031 36.4948 70.4949 36.601ZM69.795 35.9991C69.7666 35.7107 69.6265 35.4449 69.4045 35.2586C69.1826 35.0723 68.8965 34.9803 68.6076 35.0023C68.3137 34.9748 68.0208 35.0639 67.7921 35.2504C67.5633 35.4369 67.417 35.7058 67.3847 35.9991H69.795Z" fill="#231815"/>
<path d="M75.2229 32.3743V38.1753H74.5093V37.5843C74.3575 37.8023 74.1531 37.9785 73.915 38.0966C73.677 38.2147 73.413 38.2708 73.1476 38.2597C72.8907 38.2644 72.6355 38.2165 72.3978 38.1191C72.16 38.0217 71.9447 37.8767 71.7649 37.6931C71.5851 37.5095 71.4447 37.2912 71.3523 37.0514C71.2599 36.8117 71.2175 36.5556 71.2275 36.2988C71.2159 36.0432 71.2569 35.788 71.348 35.5488C71.4391 35.3097 71.5783 35.0919 71.7571 34.9088C71.9358 34.7257 72.1502 34.5813 72.3871 34.4845C72.6239 34.3877 72.8782 34.3406 73.134 34.3461C73.3993 34.33 73.6642 34.383 73.9029 34.4999C74.1416 34.6169 74.3459 34.7938 74.4957 35.0133V32.377L75.2229 32.3743ZM74.5093 36.2879C74.5093 36.1175 74.4755 35.9488 74.4097 35.7916C74.3439 35.6343 74.2475 35.4918 74.1261 35.3721C74.0047 35.2525 73.8607 35.1582 73.7026 35.0948C73.5444 35.0313 73.3752 34.9999 73.2048 35.0024C73.0367 35.0001 72.8699 35.032 72.7146 35.0962C72.5592 35.1603 72.4185 35.2554 72.3011 35.3757C72.1836 35.4959 72.0918 35.6388 72.0314 35.7956C71.9709 35.9525 71.9429 36.12 71.9492 36.2879C71.9492 36.6274 72.0841 36.953 72.3242 37.1931C72.5642 37.4331 72.8898 37.568 73.2293 37.568C73.5688 37.568 73.8944 37.4331 74.1344 37.1931C74.3745 36.953 74.5093 36.6274 74.5093 36.2879Z" fill="#231815"/>
<path d="M82.5466 36.2961C82.5561 36.5516 82.5138 36.8064 82.4221 37.045C82.3304 37.2837 82.1912 37.5012 82.013 37.6845C81.8348 37.8678 81.6212 38.0131 81.3852 38.1115C81.1493 38.2099 80.8958 38.2594 80.6401 38.257C80.3746 38.2683 80.1106 38.2123 79.8725 38.0942C79.6344 37.9761 79.4301 37.7998 79.2784 37.5816V38.1753H78.5648V32.3743H79.2539V35.0106C79.4035 34.7909 79.6077 34.6138 79.8465 34.4969C80.0852 34.3799 80.3503 34.327 80.6156 34.3433C80.8734 34.3344 81.1303 34.379 81.3701 34.4743C81.6099 34.5695 81.8273 34.7134 82.0087 34.8969C82.1901 35.0803 82.3315 35.2994 82.4241 35.5402C82.5167 35.781 82.5584 36.0384 82.5466 36.2961ZM81.8248 36.2961C81.8308 36.1275 81.8023 35.9595 81.7412 35.8023C81.6801 35.6451 81.5876 35.502 81.4693 35.3817C81.3511 35.2614 81.2096 35.1665 81.0534 35.1027C80.8973 35.0389 80.7298 35.0075 80.5611 35.0106C80.2272 35.0259 79.9121 35.1693 79.6812 35.411C79.4503 35.6527 79.3215 35.9741 79.3215 36.3083C79.3215 36.6426 79.4503 36.964 79.6812 37.2057C79.9121 37.4474 80.2272 37.5908 80.5611 37.6061C80.7315 37.6055 80.9001 37.5706 81.0567 37.5034C81.2134 37.4363 81.3549 37.3383 81.4728 37.2152C81.5907 37.0922 81.6827 36.9467 81.7432 36.7874C81.8036 36.6281 81.8314 36.4582 81.8248 36.2879V36.2961Z" fill="#231815"/>
<path d="M86.9232 34.4222L84.5429 40H83.7885L84.5837 38.0717L83.0504 34.4222H83.8212L84.9732 37.1866L86.1443 34.4222H86.9232Z" fill="#231815"/>
<path d="M90.2131 36.593H90.9648C90.9893 37.0832 91.4659 37.5816 92.2204 37.5816C92.9748 37.5816 93.3615 37.1295 93.3615 36.6393C93.3615 36.0946 92.8604 35.8603 92.3865 35.7405L91.6539 35.5635C90.4583 35.2911 90.2676 34.5912 90.2676 34.1418C90.2676 33.1859 91.1473 32.5758 92.1305 32.5758C93.1137 32.5758 93.9198 33.194 93.9198 34.1827H93.1818C93.1818 33.638 92.7133 33.2512 92.106 33.2512C91.5395 33.2512 91.0166 33.5862 91.0166 34.1336C91.0166 34.327 91.0847 34.7274 91.8336 34.9044L92.5717 35.0814C93.5304 35.3156 94.105 35.8304 94.105 36.6175C94.105 37.4754 93.3915 38.2516 92.2176 38.2516C91.0438 38.2516 90.2213 37.4536 90.2131 36.593Z" fill="#231815"/>
<path d="M98.8412 34.4223V38.1752H98.1276V37.5842C97.9754 37.8019 97.7709 37.9778 97.533 38.0958C97.295 38.2138 97.0313 38.2702 96.7659 38.2597C96.5091 38.2639 96.2541 38.2158 96.0165 38.1182C95.779 38.0206 95.5638 37.8757 95.3841 37.6922C95.2044 37.5087 95.064 37.2905 94.9714 37.0509C94.8789 36.8113 94.8361 36.5554 94.8458 36.2987C94.8342 36.0431 94.8752 35.7879 94.9663 35.5488C95.0574 35.3097 95.1966 35.0918 95.3753 34.9087C95.5541 34.7256 95.7685 34.5812 96.0054 34.4844C96.2422 34.3876 96.4964 34.3405 96.7522 34.346C97.0175 34.3302 97.2824 34.3833 97.521 34.5002C97.7597 34.6172 97.964 34.7939 98.114 35.0133V34.425L98.8412 34.4223ZM98.1276 36.2878C98.1276 36.1174 98.0938 35.9487 98.028 35.7915C97.9622 35.6342 97.8658 35.4917 97.7444 35.3721C97.623 35.2524 97.479 35.1582 97.3208 35.0947C97.1627 35.0312 96.9935 34.9998 96.8231 35.0024C96.655 35 96.4882 35.0319 96.3328 35.0961C96.1775 35.1602 96.0368 35.2553 95.9193 35.3756C95.8019 35.4958 95.7101 35.6387 95.6497 35.7955C95.5892 35.9524 95.5612 36.1199 95.5675 36.2878C95.5675 36.6273 95.7024 36.9529 95.9424 37.193C96.1825 37.433 96.5081 37.5679 96.8476 37.5679C97.1871 37.5679 97.5126 37.433 97.7527 37.193C97.9928 36.9529 98.1276 36.6273 98.1276 36.2878Z" fill="#231815"/>
<path d="M103.618 36.0046V38.1834H102.905V36.0536C102.917 35.9248 102.903 35.7948 102.862 35.672C102.821 35.5492 102.755 35.4364 102.667 35.3408C102.58 35.2453 102.473 35.1692 102.355 35.1174C102.236 35.0657 102.108 35.0395 101.979 35.0405C101.434 35.0405 100.805 35.3373 100.805 36.1517V38.1834H100.091V34.4222H100.805V34.9942C101.034 34.5366 101.657 34.3433 102.077 34.3433C103.027 34.3433 103.626 34.9533 103.618 36.0046Z" fill="#231815"/>
<path d="M104.509 37.0587H105.173C105.173 37.38 105.467 37.6442 105.936 37.6442C106.404 37.6442 106.707 37.4291 106.707 37.124C106.707 36.819 106.486 36.6964 106.181 36.6338L105.655 36.5112C105.015 36.3424 104.648 36.0374 104.648 35.4355C104.648 34.8336 105.192 34.3461 105.96 34.3461C106.609 34.3461 107.281 34.6838 107.281 35.4355H106.592C106.569 35.2923 106.493 35.163 106.379 35.0736C106.265 34.9842 106.121 34.9413 105.977 34.9534C105.606 34.9534 105.361 35.1713 105.361 35.46C105.361 35.7487 105.606 35.8522 105.854 35.9094L106.421 36.0455C107.216 36.2389 107.42 36.7046 107.42 37.1349C107.42 37.8349 106.731 38.2625 105.936 38.2625C105.247 38.257 104.541 37.8294 104.509 37.0587Z" fill="#231815"/>
<path d="M112.132 34.4222V38.1751H111.418V37.5842C111.266 37.8024 111.062 37.9787 110.824 38.0968C110.586 38.2149 110.322 38.2709 110.056 38.2596C109.799 38.2642 109.544 38.2164 109.307 38.1189C109.069 38.0215 108.853 37.8766 108.674 37.693C108.494 37.5094 108.354 37.291 108.261 37.0513C108.169 36.8115 108.126 36.5554 108.136 36.2987C108.125 36.0431 108.166 35.7878 108.257 35.5487C108.348 35.3096 108.487 35.0917 108.666 34.9087C108.845 34.7256 109.059 34.5812 109.296 34.4844C109.533 34.3876 109.787 34.3404 110.043 34.3459C110.308 34.3296 110.573 34.3825 110.812 34.4994C111.051 34.6164 111.255 34.7935 111.405 35.0132V34.4249L112.132 34.4222ZM111.418 36.2878C111.418 36.1173 111.384 35.9486 111.318 35.7914C111.253 35.6342 111.156 35.4916 111.035 35.372C110.914 35.2524 110.77 35.1581 110.611 35.0946C110.453 35.0311 110.284 34.9998 110.114 35.0023C109.946 35 109.779 35.0318 109.623 35.096C109.468 35.1602 109.327 35.2553 109.21 35.3755C109.092 35.4958 109.001 35.6386 108.94 35.7955C108.88 35.9523 108.852 36.1198 108.858 36.2878C108.858 36.6273 108.993 36.9528 109.233 37.1929C109.473 37.433 109.799 37.5678 110.138 37.5678C110.478 37.5678 110.803 37.433 111.043 37.1929C111.283 36.9528 111.418 36.6273 111.418 36.2878Z" fill="#231815"/>
<path d="M116.911 36.0046V38.1834H116.198V36.0536C116.211 35.9246 116.196 35.7943 116.155 35.6713C116.114 35.5484 116.047 35.4354 115.96 35.3398C115.872 35.2442 115.765 35.1682 115.646 35.1166C115.527 35.065 115.399 35.0391 115.269 35.0405C114.725 35.0405 114.095 35.3373 114.095 36.1517V38.1834H113.382V34.4222H114.095V34.9942C114.327 34.5366 114.951 34.3433 115.367 34.3433C116.32 34.3433 116.92 34.9533 116.911 36.0046Z" fill="#231815"/>
<path d="M54.47 13.7428C54.47 6.17147 60.3936 0.0681152 67.9213 0.0681152C75.4491 0.0681152 81.3999 6.17147 81.3999 13.7428C81.3999 21.3141 75.4082 27.3793 67.9213 27.3793C60.4344 27.3793 54.47 21.276 54.47 13.7428ZM76.2307 13.7237C76.2307 9.09378 72.761 5.40617 67.9104 5.40617C63.0599 5.40617 59.5929 9.09923 59.5929 13.7237C59.5929 18.3482 63.0218 22.044 67.9104 22.044C72.7991 22.044 76.2416 18.351 76.2416 13.7237H76.2307Z" fill="#0075B5"/>
<path d="M54.5544 13.7891C54.5544 6.22592 60.4617 0.130737 67.9786 0.130737C75.4954 0.130737 81.4326 6.22592 81.4326 13.7891C81.4326 21.3114 75.4409 27.4066 67.9731 27.4066C60.5053 27.4066 54.5544 21.3114 54.5544 13.7891ZM76.2852 13.77C76.2852 9.14006 72.8209 5.46062 67.9786 5.46062C63.0953 5.46062 59.6692 9.14824 59.6692 13.77C59.6692 18.3918 63.0953 22.0767 67.9786 22.0767C72.8618 22.0767 76.2852 18.3891 76.2852 13.77Z" fill="#0075B5"/>
<path d="M83.8646 10.2186C83.86 10.09 83.8989 9.96357 83.975 9.85979C84.0511 9.756 84.16 9.68092 84.2841 9.64668C85.043 9.45059 85.9726 9.26902 87.0729 9.10198C88.4389 8.8907 89.8195 8.78689 91.2017 8.7915C92.4434 8.75468 93.681 8.94956 94.8512 9.36616C95.7502 9.69518 96.5474 10.2539 97.1635 10.9866C97.7448 11.7173 98.1577 12.5673 98.3727 13.4759C98.6228 14.5267 98.7435 15.6041 98.7322 16.6842V26.5542C98.7322 26.7097 98.6706 26.8589 98.5609 26.9692C98.4511 27.0794 98.3022 27.1417 98.1467 27.1424H94.44C94.284 27.1424 94.1343 27.0805 94.024 26.9701C93.9137 26.8598 93.8517 26.7102 93.8517 26.5542V17.2616C93.8517 15.6892 93.6447 14.5762 93.2307 13.9226C92.8168 13.2689 92.0415 12.9412 90.9049 12.9394C90.5563 12.9394 90.1831 12.9557 89.7937 12.9884C89.4042 13.0211 89.0502 13.0592 88.7451 13.1028V26.5542C88.7451 26.7102 88.6832 26.8598 88.5728 26.9701C88.4625 27.0805 88.3129 27.1424 88.1569 27.1424H84.4502C84.2946 27.1417 84.1457 27.0794 84.036 26.9692C83.9262 26.8589 83.8646 26.7097 83.8646 26.5542V10.2186Z" fill="#231815"/>
<path d="M48.1896 0.612799V26.5568C48.1889 26.7119 48.127 26.8604 48.0173 26.9701C47.9076 27.0797 47.7591 27.1417 47.604 27.1424H43.8102C43.7331 27.1427 43.6566 27.1279 43.5853 27.0986C43.5139 27.0693 43.4491 27.0263 43.3944 26.9718C43.3397 26.9174 43.2964 26.8528 43.2668 26.7815C43.2372 26.7103 43.2219 26.634 43.2219 26.5568V0.612799C43.2216 0.535572 43.2366 0.459042 43.266 0.387657C43.2955 0.316272 43.3389 0.251455 43.3936 0.196973C43.4483 0.142491 43.5133 0.0994307 43.5849 0.0702938C43.6564 0.0411569 43.733 0.0265246 43.8102 0.0272472H47.604C47.7593 0.0272472 47.9083 0.0889391 48.0181 0.198751C48.1279 0.308564 48.1896 0.457501 48.1896 0.612799Z" fill="#231815"/>
<path d="M38.129 0.612799V26.5568C38.1283 26.7119 38.0663 26.8604 37.9567 26.9701C37.847 27.0798 37.6985 27.1417 37.5434 27.1424H33.7523C33.597 27.1424 33.4481 27.0807 33.3383 26.9709C33.2285 26.8611 33.1668 26.7121 33.1668 26.5568V0.612799C33.166 0.535701 33.1807 0.459232 33.2099 0.387861C33.239 0.31649 33.2821 0.25165 33.3367 0.19713C33.3912 0.142611 33.456 0.0995075 33.5274 0.0703383C33.5988 0.0411692 33.6752 0.0265201 33.7523 0.0272475H37.5489C37.7032 0.0286834 37.8508 0.0910086 37.9594 0.200666C38.068 0.310323 38.129 0.458441 38.129 0.612799Z" fill="#231815"/>
<path d="M28.0792 9.36609V26.5568C28.0785 26.7096 28.0185 26.8561 27.9118 26.9654C27.805 27.0746 27.6599 27.1381 27.5072 27.1424H23.6943C23.6174 27.1424 23.5413 27.1272 23.4703 27.0978C23.3992 27.0684 23.3347 27.0252 23.2803 26.9709C23.2259 26.9165 23.1828 26.8519 23.1534 26.7809C23.1239 26.7098 23.1088 26.6337 23.1088 26.5568V9.36609C23.1081 9.289 23.1227 9.21253 23.1519 9.14116C23.1811 9.06979 23.2242 9.00495 23.2787 8.95043C23.3332 8.89591 23.398 8.8528 23.4694 8.82363C23.5408 8.79446 23.6172 8.77982 23.6943 8.78054H27.5072C27.6602 8.7841 27.8056 8.84736 27.9125 8.95679C28.0194 9.06622 28.0792 9.21313 28.0792 9.36609Z" fill="#231815"/>
<path d="M28.0792 0.612799V5.76838C28.0792 5.92161 28.0195 6.06882 27.9127 6.17868C27.8059 6.28855 27.6604 6.3524 27.5072 6.35666H23.6943C23.6172 6.35666 23.5409 6.34142 23.4696 6.31182C23.3984 6.28223 23.3337 6.23885 23.2793 6.18419C23.2249 6.12953 23.1818 6.06465 23.1526 5.9933C23.1233 5.92194 23.1084 5.8455 23.1088 5.76838V0.612799C23.1081 0.535701 23.1227 0.459232 23.1519 0.387861C23.1811 0.31649 23.2242 0.25165 23.2787 0.19713C23.3332 0.142611 23.398 0.0995075 23.4694 0.0703383C23.5408 0.0411692 23.6172 0.0265201 23.6943 0.0272475H27.5072C27.6602 0.0308049 27.8056 0.0940637 27.9125 0.203493C28.0194 0.312922 28.0792 0.459832 28.0792 0.612799Z" fill="#231815"/>
<path d="M109.259 8.78052C104.833 8.78052 101.069 12.0841 101.069 17.384C101.069 22.4416 103.918 27.1423 109.259 27.1423C111.772 27.1423 114.286 26.1755 115.795 24.378C115.888 24.2563 115.934 24.1055 115.925 23.9528C115.917 23.8 115.854 23.6553 115.749 23.5446L114.033 21.7199C113.974 21.6606 113.903 21.6137 113.826 21.5816C113.749 21.5496 113.666 21.5331 113.582 21.5331C113.498 21.5331 113.415 21.5496 113.338 21.5816C113.261 21.6137 113.191 21.6606 113.131 21.7199C112.147 22.5998 110.873 23.0848 109.553 23.0816C106.148 23.0816 105.557 20.3826 105.557 18.8684H116.664C116.802 18.8606 116.932 18.804 117.032 18.7087C117.132 18.6133 117.194 18.4855 117.208 18.3482C117.21 18.3291 117.21 18.31 117.208 18.291C117.233 17.828 117.249 17.4494 117.249 17.1199C117.252 12.0841 113.652 8.78052 109.259 8.78052ZM105.56 15.8752C106.026 13.661 107.575 12.7813 109.327 12.7813C111.277 12.7813 112.794 13.9443 112.924 15.8752H105.56Z" fill="#231815"/>
<path d="M116.666 18.8575C116.64 18.8648 116.611 18.8648 116.585 18.8575H116.666Z" fill="#231815"/>
<path d="M14.5571 12.7242C17.4004 11.8499 18.1576 9.22446 18.1576 7.27716C18.1576 3.31992 15.1617 0.0544498 10.4964 0.0544498H0.729902C0.652317 0.0540856 0.575433 0.0691436 0.503718 0.098749C0.432002 0.128354 0.366885 0.171917 0.312151 0.226905C0.257416 0.281893 0.214155 0.34721 0.184881 0.419062C0.155607 0.490913 0.140904 0.567866 0.141627 0.645449V26.5949C0.141984 26.6718 0.157483 26.7479 0.18724 26.8188C0.216997 26.8897 0.260428 26.9541 0.315055 27.0082C0.369682 27.0623 0.434433 27.1051 0.505613 27.1342C0.576793 27.1633 0.653006 27.1781 0.729902 27.1778H11.2943C17.06 27.1778 19.5248 23.2995 19.5248 19.6827C19.5248 16.7168 17.8934 13.2988 14.5571 12.7242ZM5.41704 4.74159H10.1968C12.0515 4.74159 12.8903 6.22317 12.8903 7.82186C12.8903 9.6112 11.8636 10.9375 10.1968 10.9375H5.41704V4.74159ZM10.5318 22.4961H5.41704V15.3496H10.6216C13.1273 15.3496 14.2248 17.2887 14.2248 18.9256C14.2167 20.674 13.002 22.4961 10.5318 22.4961Z" fill="#231815"/>
</g>
<defs>
<clipPath id="clip0">
<rect width="117.252" height="40" fill="white"/>
</clipPath>
</defs>
</svg>
